<svg xmlns="http://www.w3.org/2000/svg" xmlns:xlink="http://www.w3.org/1999/xlink" viewBox="0 0 117.67 174.31"><defs><style>.cls-1{fill:url(#Unbenannter_Verlauf_14);}.cls-2{fill:url(#Unbenannter_Verlauf_14-2);}.cls-3{fill:url(#Unbenannter_Verlauf_14-3);}.cls-4{fill:url(#Unbenannter_Verlauf_14-4);}.cls-5{fill:url(#Unbenannter_Verlauf_14-5);}</style><linearGradient id="Unbenannter_Verlauf_14" x1="417.6" y1="-485.89" x2="578.23" y2="-485.89" gradientTransform="translate(544.73 591.91) rotate(-90)" gradientUnits="userSpaceOnUse"><stop offset="0.02" stop-color="#fc6574"/><stop offset="0.11" stop-color="#fd6f63"/><stop offset="0.26" stop-color="#fe7a4f"/><stop offset="0.44" stop-color="#fe8241"/><stop offset="0.65" stop-color="#ff8739"/><stop offset="1" stop-color="#ff8836"/></linearGradient><linearGradient id="Unbenannter_Verlauf_14-2" x1="38.07" y1="29.35" x2="44.28" y2="29.35" gradientTransform="translate(-29.82 56.12) rotate(-8.25)" xlink:href="#Unbenannter_Verlauf_14"/><linearGradient id="Unbenannter_Verlauf_14-3" x1="100.3" y1="97.68" x2="104.25" y2="97.68" gradientTransform="matrix(1, 0, 0, 1, 0, 0)" xlink:href="#Unbenannter_Verlauf_14"/><linearGradient id="Unbenannter_Verlauf_14-4" x1="705.63" y1="397.2" x2="711.83" y2="397.2" gradientTransform="translate(812.99 427.31) rotate(178.97)" xlink:href="#Unbenannter_Verlauf_14"/><linearGradient id="Unbenannter_Verlauf_14-5" x1="65.74" y1="7.8" x2="71.05" y2="7.8" gradientTransform="matrix(1, 0, 0, 1, 0, 0)" xlink:href="#Unbenannter_Verlauf_14"/></defs><title>Logo</title><g id="Ebene_2" data-name="Ebene 2"><g id="Ebene_1-2" data-name="Ebene 1"><path class="cls-1" d="M105.81,127h0s-2.93-7.74-5.51-13.7a120.4,120.4,0,0,1-8.44-30.59c.26-2,.52-4,.78-6,4.08-14-3.88-27.61-4.88-28.73-.05,0-.1,4.15-.11,4.22-.81,5.63-2.27,7.52-3.44,8.08,1.55-13.09.06-29.08-10.51-43.92,0,0,1.12,18.44-3.66,16.78A23.26,23.26,0,0,1,65.8,30.9c-5.72-5.17-3.23-15.63-3.34-17.22,0-.1-5.39,4.16-5.46,4.24-3.12,3.67-12.86,14.41-16.79,26.22a70.78,70.78,0,0,0-2.74,11c-4.4-7.5-5.39-23-5.39-23A67,67,0,0,0,24.47,53a68.14,68.14,0,0,0,3,35.4,3.89,3.89,0,0,1-.06,2.81c-2.37,5.79-4.86,11.8-7,17.64-.09.24-.13.5-.2.76C17.52,110.16,15.74,98,15.7,98c-6.65,7.35-2.82,30.37-3,34.17-.32,5.55-16.42,36.66-11.86,40.9,1,.92,5.68,1.4,19.23,1.18,11.23-.18,12.59-.95,13.53-1.76,4.35-3.75,2.16-8.61,5.31-15.16,5.61-11.69,28.79-10.64,35.72-8.62a6.7,6.7,0,0,1,3,1.69c2.29,2.34,1.61,5.51,2,11.74.31,5.18.43,7.77,1.48,9,1.47,1.71,9.89.27,21.26,1,6.68.41,13.07-.33,15.19-1.93C119.37,168.74,107.82,131.81,105.81,127ZM71,117.82a1.45,1.45,0,0,1-2.3,1.48c-4.53-3.44-12.57-6-12.56-6,1.4,6.43-8.25,9.76-10.87,10.11a.37.37,0,0,1-.4-.46,322.12,322.12,0,0,1,4-34C50.14,82,51.53,75.43,53,69.17a24.9,24.9,0,0,1,.58-2.59c.25-.85.53-1.69.82-2.53a15.47,15.47,0,0,0,.9-6.71c4.43,4.55,7.61,14.84,8.91,19.48C68,90.16,71.35,117,71,117.82Z"/><path class="cls-2" d="M14.34,68.75c1.59,1.68,1.43,4.1,1.56,6.42.08,1.39,0,2.78,0,4.17.18,3.54.86,6.94,3.78,9.87-6.31-2.12-8.17-5.22-7.07-11.15C13.23,75,13.78,71.83,14.34,68.75Z"/><path class="cls-3" d="M103.57,90.37c.83,1.37.37,3,.13,4.58-.15,1-.43,1.88-.58,2.83-.39,2.42-.43,4.82,1.13,7.22-4-2.33-4.78-4.69-3.17-8.56C101.92,94.42,102.74,92.39,103.57,90.37Z"/><path class="cls-4" d="M96.69,53.4c-1.36-1.87-.9-4.25-.73-6.57.1-1.39.39-2.76.49-4.14.27-3.54,0-7-2.49-10.26,6,2.88,7.44,6.19,5.59,11.94C98.58,47.38,97.63,50.4,96.69,53.4Z"/><path class="cls-5" d="M68.46,0a11.64,11.64,0,0,0,1.8,7c1.64,3,.79,5.5-3.09,8.56,1.51-3.78.78-6.71-1-9.62C65.12,4.16,66,2.38,68.46,0Z"/></g></g></svg>